<svg width="20" height="20" viewBox="0 0 20 20" fill="none" xmlns="http://www.w3.org/2000/svg">
<g clip-path="url(#clip0_30754_376372)">
<path d="M6.11111 7.22222C6.11111 6.60857 6.60857 6.11111 7.22222 6.11111H8.51852C8.82534 6.11111 9.07407 5.86238 9.07407 5.55556C9.07407 5.24873 8.82534 5 8.51852 5H7.22222C5.99492 5 5 5.99492 5 7.22222V12.7778C5 14.0051 5.99492 15 7.22222 15H12.7778C14.0051 15 15 14.0051 15 12.7778V11.4815C15 11.1747 14.7513 10.9259 14.4444 10.9259C14.1376 10.9259 13.8889 11.1747 13.8889 11.4815V12.7778C13.8889 13.3914 13.3914 13.8889 12.7778 13.8889H7.22222C6.60857 13.8889 6.11111 13.3914 6.11111 12.7778V7.22222Z" fill="#3971FF"/>
<path d="M10 5.55556C10 5.24873 10.2487 5 10.5556 5H14.4444C14.7513 5 15 5.24873 15 5.55556V9.44444C15 9.75127 14.7513 10 14.4444 10C14.1376 10 13.8889 9.75127 13.8889 9.44444V6.89679L10.3928 10.3928C10.1759 10.6098 9.82412 10.6098 9.60716 10.3928C9.39021 10.1759 9.39021 9.82412 9.60716 9.60716L13.1032 6.11111H10.5556C10.2487 6.11111 10 5.86238 10 5.55556Z" fill="#3971FF"/>
</g>
<defs>
<clipPath id="clip0_30754_376372">
<rect width="10" height="10" fill="white" transform="translate(5 5)"/>
</clipPath>
</defs>
</svg>
